<?xml version="1.0" encoding="UTF-8" standalone="no"?><!DOCTYPE svg PUBLIC "-//W3C//DTD SVG 1.1//EN" "http://www.w3.org/Graphics/SVG/1.1/DTD/svg11.dtd"><svg width="100%" height="100%" viewBox="0 0 48 48" version="1.1" xmlns="http://www.w3.org/2000/svg" xmlns:xlink="http://www.w3.org/1999/xlink" xml:space="preserve" xmlns:serif="http://www.serif.com/" style="fill-rule:evenodd;clip-rule:evenodd;stroke-linejoin:round;stroke-miterlimit:1.41421;"><rect x="9" y="25" width="30" height="14" style="fill:#43c75a;"/><g id="surface1"><path d="M38,24l0,12c0,1.102 -0.898,2 -2,2l-24,0c-1.102,0 -2,-0.898 -2,-2l0,-12c0,-3.301 -2.699,-6 -6,-6l0,4c1.102,0 2,0.898 2,2l0,12c0,3.301 2.699,6 6,6l24,0c3.301,0 6,-2.699 6,-6l0,-12c0,-1.102 0.898,-2 2,-2l0,-4c-3.301,0 -6,2.699 -6,6Z" style="fill:#90a4ae;fill-rule:nonzero;"/><path d="M37.602,5.602l-9.602,9.597l0,12.801l4,0l0,-11.199l8.398,-8.403l-2.796,-2.796Z" style="fill:#43c75a;fill-rule:nonzero;"/><path d="M7.602,8.398l8.398,8.403l0,11.199l4,0l0,-12.801l-9.602,-9.597l-2.796,2.796Z" style="fill:#3f51b5;fill-rule:nonzero;"/><path d="M24,27l-6,6l-6,-6l12,0Z" style="fill:#3f51b5;fill-rule:nonzero;"/><path d="M32.5,5l8.5,0l0,8.5l-8.5,-8.5Z" style="fill:#43c75a;fill-rule:nonzero;"/><rect x="28" y="26" width="4" height="7" style="fill:#43c75a;"/></g></svg>